[Header]
FileType HTR
DataType HTRS
FileVersion 1
NumSegments 64
NumFrames 3
DataFrameRate 24
EulerRotationOrder ZYX
CalibrationUnits mm
RotationUnits Degrees
GlobalAxisofGravity Y
BoneLengthAxis Y
ScaleFactor 1.0
[SegmentNames&Hierarchy]
Hips	GLOBAL
Spine	Hips
Spine1	Spine
Spine2	Spine1
Neck	Spine2
Head	Neck
LeftEye	Head
RightEye	Head
LeftShoulder	Spine2
LeftArm	LeftShoulder
LeftForeArm	LeftArm
LeftHand	LeftForeArm
LeftHandThumb1	LeftHand
LeftHandThumb2	LeftHandThumb1
LeftHandThumb3	LeftHandThumb2
LeftHandThumb4	LeftHandThumb3
LeftHandIndex1	LeftHand
LeftHandIndex2	LeftHandIndex1
LeftHandIndex3	LeftHandIndex2
LeftHandIndex4	LeftHandIndex3
LeftHandMiddle1	LeftHand
LeftHandMiddle2	LeftHandMiddle1
LeftHandMiddle3	LeftHandMiddle2
LeftHandMiddle4	LeftHandMiddle3
LeftHandRing1	LeftHand
LeftHandRing2	LeftHandRing1
LeftHandRing3	LeftHandRing2
LeftHandRing4	LeftHandRing3
LeftHandPinky1	LeftHand
LeftHandPinky2	LeftHandPinky1
LeftHandPinky3	LeftHandPinky2
LeftHandPinky4	LeftHandPinky3
RightShoulder	Spine2
RightArm	RightShoulder
RightForeArm	RightArm
RightHand	RightForeArm
RightHandPinky1	RightHand
RightHandPinky2	RightHandPinky1
RightHandPinky3	RightHandPinky2
RightHandPinky4	RightHandPinky3
RightHandRing1	RightHand
RightHandRing2	RightHandRing1
RightHandRing3	RightHandRing2
RightHandRing4	RightHandRing3
RightHandMiddle1	RightHand
RightHandMiddle2	RightHandMiddle1
RightHandMiddle3	RightHandMiddle2
RightHandMiddle4	RightHandMiddle3
RightHandIndex1	RightHand
RightHandIndex2	RightHandIndex1
RightHandIndex3	RightHandIndex2
RightHandIndex4	RightHandIndex3
RightHandThumb1	RightHand
RightHandThumb2	RightHandThumb1
RightHandThumb3	RightHandThumb2
RightHandThumb4	RightHandThumb3
LeftUpLeg	Hips
LeftLeg	LeftUpLeg
LeftFoot	LeftLeg
LeftToeBase	LeftFoot
RightUpLeg	Hips
RightLeg	RightUpLeg
RightFoot	RightLeg
RightToeBase	RightFoot
[BasePosition]
Hips	0	0	0	0	0	0	1
Spine	0	0	0	0	0	0	1
Spine1	0	0	0	0	0	0	1
Spine2	0	0	0	0	0	0	1
Neck	0	0	0	0	0	0	1
Head	0	0	0	0	0	0	1
LeftEye	0	0	0	0	0	0	1
RightEye	0	0	0	0	0	0	1
LeftShoulder	0	0	0	0	0	0	1
LeftArm	0	0	0	0	0	0	1
LeftForeArm	0	0	0	0	0	0	1
LeftHand	0	0	0	0	0	0	1
LeftHandThumb1	0	0	0	0	0	0	1
LeftHandThumb2	0	0	0	0	0	0	1
LeftHandThumb3	0	0	0	0	0	0	1
LeftHandThumb4	0	0	0	0	0	0	1
LeftHandIndex1	0	0	0	0	0	0	1
LeftHandIndex2	0	0	0	0	0	0	1
LeftHandIndex3	0	0	0	0	0	0	1
LeftHandIndex4	0	0	0	0	0	0	1
LeftHandMiddle1	0	0	0	0	0	0	1
LeftHandMiddle2	0	0	0	0	0	0	1
LeftHandMiddle3	0	0	0	0	0	0	1
LeftHandMiddle4	0	0	0	0	0	0	1
LeftHandRing1	0	0	0	0	0	0	1
LeftHandRing2	0	0	0	0	0	0	1
LeftHandRing3	0	0	0	0	0	0	1
LeftHandRing4	0	0	0	0	0	0	1
LeftHandPinky1	0	0	0	0	0	0	1
LeftHandPinky2	0	0	0	0	0	0	1
LeftHandPinky3	0	0	0	0	0	0	1
LeftHandPinky4	0	0	0	0	0	0	1
RightShoulder	0	0	0	0	0	0	1
RightArm	0	0	0	0	0	0	1
RightForeArm	0	0	0	0	0	0	1
RightHand	0	0	0	0	0	0	1
RightHandPinky1	0	0	0	0	0	0	1
RightHandPinky2	0	0	0	0	0	0	1
RightHandPinky3	0	0	0	0	0	0	1
RightHandPinky4	0	0	0	0	0	0	1
RightHandRing1	0	0	0	0	0	0	1
RightHandRing2	0	0	0	0	0	0	1
RightHandRing3	0	0	0	0	0	0	1
RightHandRing4	0	0	0	0	0	0	1
RightHandMiddle1	0	0	0	0	0	0	1
RightHandMiddle2	0	0	0	0	0	0	1
RightHandMiddle3	0	0	0	0	0	0	1
RightHandMiddle4	0	0	0	0	0	0	1
RightHandIndex1	0	0	0	0	0	0	1
RightHandIndex2	0	0	0	0	0	0	1
RightHandIndex3	0	0	0	0	0	0	1
RightHandIndex4	0	0	0	0	0	0	1
RightHandThumb1	0	0	0	0	0	0	1
RightHandThumb2	0	0	0	0	0	0	1
RightHandThumb3	0	0	0	0	0	0	1
RightHandThumb4	0	0	0	0	0	0	1
LeftUpLeg	0	0	0	0	0	0	1
LeftLeg	0	0	0	0	0	0	1
LeftFoot	0	0	0	0	0	0	1
LeftToeBase	0	0	0	0	0	0	1
RightUpLeg	0	0	0	0	0	0	1
RightLeg	0	0	0	0	0	0	1
RightFoot	0	0	0	0	0	0	1
RightToeBase	0	0	0	0	0	0	1
[Hips]
15	89.38139343	952.4301758	-22.5508728	13.37455082	9.120047569	0.05814881995	1.0
16	88.36106873	1058.962524	11.93791962	9.140741348	9.384566307	-0.6077756286	1.0
17	87.29803467	1163.71521	40.91978073	6.648768902	9.613792419	-0.6679107547	1.0
[Spine]
15	0	101.8159943	1.315000057	10.40337181	0.7330753803	-1.609852195	1.0
16	0	101.8159943	1.315000057	8.321516037	0.8681076765	-2.138530493	1.0
17	0	101.8159943	1.315000057	5.841205597	0.2409259379	-2.377655268	1.0
[Spine1]
15	0	100.8349991	-10.00800037	2.897204161	-0.3725411892	2.309419394	1.0
16	0	100.8349991	-10.00800037	2.3159585	-0.2681584656	2.251239061	1.0
17	0	100.8349991	-10.00800037	1.727980494	-0.3505283594	1.939017415	1.0
[Spine2]
15	0	91	-13.73399925	2.861687422	-0.03448102251	2.287474155	1.0
16	0	91	-13.73399925	2.281155348	0.06722216308	2.226289034	1.0
17	0	91	-13.73399925	1.691755652	-0.0434981361	1.914002061	1.0
[Neck]
15	0	166.7169952	-25.16200066	-7.946219444	-1.498974442	-0.4471161366	1.0
16	0	166.7169952	-25.16200066	-1.714561582	-1.669753075	-0.5973262191	1.0
17	0	166.7169952	-25.16200066	4.432769299	-1.398836613	-1.452544093	1.0
[Head]
15	0	96.17900085	16.84999847	-23.88508987	-6.371870518	-7.701091766	1.0
16	0	96.17900085	16.84999847	-15.52099514	-6.100903511	-6.258885384	1.0
17	0	96.17900085	16.84999847	-9.422532082	-5.689896584	-4.213659763	1.0
[LeftEye]
15	30.6760006	64.09500122	92.83599854	0	0	0	1.0
16	30.6760006	64.09500122	92.83599854	0	0	0	1.0
17	30.6760006	64.09500122	92.83599854	0	0	0	1.0
[RightEye]
15	-30.6760006	64.09500122	92.83499908	0	0	0	1.0
16	-30.6760006	64.09500122	92.83499908	0	0	0	1.0
17	-30.6760006	64.09500122	92.83499908	0	0	0	1.0
[LeftShoulder]
15	45.70400238	109.4599991	-26.28000069	-5.285464287	-17.77314949	22.66723824	1.0
16	45.70400238	109.4599991	-26.28000069	-3.989844322	-15.71844387	24.34389687	1.0
17	45.70400238	109.4599991	-26.28000069	-1.115586281	-13.3466444	22.18381691	1.0
[LeftArm]
15	105.923996	-5.24600029	-22.32099915	-26.15546989	-45.96406937	-14.3698616	1.0
16	105.923996	-5.24600029	-22.32099915	-24.14202881	-35.68886566	-19.10972786	1.0
17	105.923996	-5.24600029	-22.32099915	-24.22451973	-26.29811096	-22.53497505	1.0
[LeftForeArm]
15	278.414978	-0.0009999999311	0	2.3332193e-06	-36.41292572	-0.0002151086373	1.0
16	278.414978	-0.0009999999311	0	3.341003548e-06	-47.37403488	-0.0002076986566	1.0
17	278.414978	-0.0009999999311	0	3.935032964e-06	-58.97118378	-0.0002132063237	1.0
[LeftHand]
15	283.2879944	0	0	-18.45536423	-16.58913231	-34.78821564	1.0
16	283.2879944	0	0	-21.89484406	-18.14495087	-30.89519119	1.0
17	283.2879944	0	0	-24.62726212	-18.73880959	-22.23619843	1.0
[LeftHandThumb1]
15	24.6609993	-15.75	26.8239994	18.10197258	-3.862924099	10.23297119	1.0
16	24.6609993	-15.75	26.8239994	18.07712173	-3.902682066	10.22905922	1.0
17	24.6609993	-15.75	26.8239994	18.04909897	-3.935353994	10.22076035	1.0
[LeftHandThumb2]
15	32.29800034	-18.64699936	18.64699936	-0.4434852898	32.81604004	-2.845990419	1.0
16	32.29800034	-18.64699936	18.64699936	-0.4773664176	32.73087311	-2.866023064	1.0
17	32.29800034	-18.64699936	18.64699936	-0.5095140338	32.64997864	-2.884972334	1.0
[LeftHandThumb3]
15	26.52600098	-15.31499958	15.31499958	2.092134476	9.333206177	-0.01504151616	1.0
16	26.52600098	-15.31499958	15.31499958	2.08281374	9.299250603	-0.02355987392	1.0
17	26.52600098	-15.31499958	15.31499958	2.073976517	9.266981125	-0.03163840994	1.0
[LeftHandThumb4]
15	19.54599953	-11.28499985	11.28499985	0	0	0	1.0
16	19.54599953	-11.28499985	11.28499985	0	0	0	1.0
17	19.54599953	-11.28499985	11.28499985	0	0	0	1.0
[LeftHandIndex1]
15	91.09299469	-5.170999527	22.60099792	-3.137058973	6.706742764	-35.92897034	1.0
16	91.09299469	-5.170999527	22.60099792	-3.229240417	6.696495056	-36.72304153	1.0
17	91.09299469	-5.170999527	22.60099792	-3.18342042	6.638246059	-36.32382584	1.0
[LeftHandIndex2]
15	36.76399994	0	0	-2.526623964	4.847670078	-48.57657242	1.0
16	36.76399994	0	0	-2.593558788	4.891386509	-49.36504364	1.0
17	36.76399994	0	0	-2.559581757	4.869353294	-48.96554184	1.0
[LeftHandIndex3]
15	28.83100128	0	0	-1.245482802	3.339433908	-38.09234238	1.0
16	28.83100128	0	0	-1.294588447	3.401095629	-38.87833023	1.0
17	28.83100128	0	0	-1.269617677	3.369930029	-38.48018646	1.0
[LeftHandIndex4]
15	23.92700005	0	0	0	0	0	1.0
16	23.92700005	0	0	0	0	0	1.0
17	23.92700005	0	0	0	0	0	1.0
[LeftHandMiddle1]
15	95.33399963	0	0	-5.297764778	9.736459732	-44.22566986	1.0
16	95.33399963	0	0	-5.409682274	9.715649605	-45.02306747	1.0
17	95.33399963	0	0	-5.352649212	9.697888374	-44.61922073	1.0
[LeftHandMiddle2]
15	36.98199844	0	0	-3.778620958	5.362978458	-61.52340698	1.0
16	36.98199844	0	0	-3.854240894	5.388657093	-62.31448746	1.0
17	36.98199844	0	0	-3.815897942	5.375794411	-61.91366196	1.0
[LeftHandMiddle3]
15	29.50900078	0	0	-1.412690282	3.926914692	-40.20589828	1.0
16	29.50900078	0	0	-1.464691877	3.985127687	-40.99258804	1.0
17	29.50900078	0	0	-1.438238502	3.955717325	-40.59406281	1.0
[LeftHandMiddle4]
15	28.3390007	0	0	0	0	0	1.0
16	28.3390007	0	0	0	0	0	1.0
17	28.3390007	0	0	0	0	0	1.0
[LeftHandRing1]
15	91.04499817	-0.4390000105	-18.65100098	-6.96887207	11.7200613	-55.44699097	1.0
16	91.04499817	-0.4390000105	-18.65100098	-7.080759048	11.70244789	-56.24850845	1.0
17	91.04499817	-0.4390000105	-18.65100098	-7.025240898	11.73056507	-55.84321976	1.0
[LeftHandRing2]
15	31.54000092	0	0	-3.37582016	5.745793343	-68.39366913	1.0
16	31.54000092	0	0	-3.447756052	5.776815414	-69.18710327	1.0
17	31.54000092	0	0	-3.411246061	5.76121664	-68.78481293	1.0
[LeftHandRing3]
15	29.37700081	0	0	-1.370134234	4.337471008	-47.27878571	1.0
16	29.37700081	0	0	-1.422480226	4.395362854	-48.06557465	1.0
17	29.37700081	0	0	-1.395867705	4.366110802	-47.66695023	1.0
[LeftHandRing4]
15	26.47500038	0	0	0	0	0	1.0
16	26.47500038	0	0	0	0	0	1.0
17	26.47500038	0	0	0	0	0	1.0
[LeftHandPinky1]
15	80.77799988	-4.887000084	-38.06099701	-13.02011395	14.406744	-65.9098053	1.0
16	80.77799988	-4.887000084	-38.06099701	-13.22939873	14.34813213	-66.72553253	1.0
17	80.77799988	-4.887000084	-38.06099701	-13.1300745	14.42586613	-66.32213593	1.0
[LeftHandPinky2]
15	36	0	0	-4.411175251	5.079737186	-73.73699188	1.0
16	36	0	0	-4.487808704	5.097008228	-74.52547455	1.0
17	36	0	0	-4.448752403	5.088345051	-74.12390137	1.0
[LeftHandPinky3]
15	21.14200211	0	0	-2.305959702	4.973160744	-48.5286026	1.0
16	21.14200211	0	0	-2.369629622	5.019554615	-49.31727219	1.0
17	21.14200211	0	0	-2.337310791	4.996179581	-48.91775894	1.0
[LeftHandPinky4]
15	19.75699997	0	0	0	0	0	1.0
16	19.75699997	0	0	0	0	0	1.0
17	19.75699997	0	0	0	0	0	1.0
[RightShoulder]
15	-45.70000076	109.4620056	-26.28000069	-2.606568336	12.76740646	-21.19165039	1.0
16	-45.70000076	109.4620056	-26.28000069	-0.2647056282	9.785139084	-20.47260094	1.0
17	-45.70000076	109.4620056	-26.28000069	2.53144455	6.33211565	-16.7444458	1.0
[RightArm]
15	-105.9280014	-5.248000145	-22.32099915	-57.27461624	35.48705292	1.602427721	1.0
16	-105.9280014	-5.248000145	-22.32099915	-51.58269119	27.24201202	12.84038067	1.0
17	-105.9280014	-5.248000145	-22.32099915	-45.32772827	18.84313011	25.23783112	1.0
[RightForeArm]
15	-278.414978	0	0	-3.197546448e-06	51.1571312	-3.980229337e-07	1.0
16	-278.414978	0	0	-1.900983443e-05	60.87824631	-1.575220449e-05	1.0
17	-278.414978	0	0	9.267425867e-07	68.01668549	-1.14105851e-05	1.0
[RightHand]
15	-283.2879944	0	0.0009999999311	-1.677609921	23.40343285	28.35354233	1.0
16	-283.2879944	0	0.0009999999311	6.017203808	21.00123215	24.8033886	1.0
17	-283.2879944	0	0.0009999999311	8.129083633	23.63756371	8.343058586	1.0
[RightHandPinky1]
15	-80.76699829	-4.885000229	-38.06000137	-11.38308716	-17.32834816	57.89914703	1.0
16	-80.76699829	-4.885000229	-38.06000137	-8.325405121	-21.17639732	44.17509842	1.0
17	-80.76699829	-4.885000229	-38.06000137	-4.918562412	-24.37433052	29.52789688	1.0
[RightHandPinky2]
15	-36	0	0.0009999999311	-3.619444847	-4.833361149	65.42902374	1.0
16	-36	0	0.0009999999311	-2.434020996	-4.199048042	51.90443039	1.0
17	-36	0	0.0009999999311	-1.406137824	-3.277931452	38.03021622	1.0
[RightHandPinky3]
15	-21.14200211	0	0	-1.947977424	-1.520509958	41.87291336	1.0
16	-21.14200211	0	0	-1.088538289	-0.4999013245	28.5274334	1.0
17	-21.14200211	0	0	-0.4749054313	0.7271855474	14.81919956	1.0
[RightHandPinky4]
15	-19.75699997	0	0	0	0	0	1.0
16	-19.75699997	0	0	0	0	0	1.0
17	-19.75699997	0	0	0	0	0	1.0
[RightHandRing1]
15	-91.03599548	-0.4390000105	-18.65100098	-5.87816143	-13.17562485	47.19091034	1.0
16	-91.03599548	-0.4390000105	-18.65100098	-4.036141396	-14.32758045	33.50834274	1.0
17	-91.03599548	-0.4390000105	-18.65100098	-2.209965467	-14.7791996	19.36179161	1.0
[RightHandRing2]
15	-31.54000092	0	0	-2.655145168	-5.364917278	60.1391716	1.0
16	-31.54000092	0	0	-1.617959619	-4.533794403	46.65259171	1.0
17	-31.54000092	0	0	-0.7851631045	-3.45217514	32.8142662	1.0
[RightHandRing3]
15	-29.37700081	0	0	-0.8718000054	-1.721572876	37.55033112	1.0
16	-29.37700081	0	0	-0.3070589304	-0.5237486362	24.21136284	1.0
17	-29.37700081	0	0	-0.03052875958	0.8095953465	10.50528431	1.0
[RightHandRing4]
15	-26.47500038	0	0	0	0	0	1.0
16	-26.47500038	0	0	0	0	0	1.0
17	-26.47500038	0	0	0	0	0	1.0
[RightHandMiddle1]
15	-95.32500458	0	0	-4.128182888	-8.549143791	35.93727112	1.0
16	-95.32500458	0	0	-2.310389519	-6.833143234	22.47866631	1.0
17	-95.32500458	0	0	-0.6591678262	-4.636587143	8.773323059	1.0
[RightHandMiddle2]
15	-36.98199844	0	0	-3.016070127	-5.034631252	53.29957581	1.0
16	-36.98199844	0	0	-1.894539356	-4.275477886	39.86048889	1.0
17	-36.98199844	0	0	-0.9591060281	-3.246219397	26.071455	1.0
[RightHandMiddle3]
15	-29.50900078	0	0	-1.138475776	-3.421517611	35.67222214	1.0
16	-29.50900078	0	0	-0.4736429155	-2.275942326	22.30823708	1.0
17	-29.50900078	0	0	-0.08551979065	-0.9708445668	8.58723259	1.0
[RightHandMiddle4]
15	-28.3390007	0	0.0009999999311	0	0	0	1.0
16	-28.3390007	0	0.0009999999311	0	0	0	1.0
17	-28.3390007	0	0.0009999999311	0	0	0	1.0
[RightHandIndex1]
15	-91.08300018	-5.167999744	22.60099792	-2.178088188	-4.121371269	27.85228157	1.0
16	-91.08300018	-5.167999744	22.60099792	-0.7471171618	0.05935135111	14.76470947	1.0
17	-91.08300018	-5.167999744	22.60099792	0.4488790333	4.785069466	1.48312521	1.0
[RightHandIndex2]
15	-36.76399994	0	0	-1.868822575	-4.339959621	40.3800354	1.0
16	-36.76399994	0	0	-0.9697248936	-3.325109482	26.99012566	1.0
17	-36.76399994	0	0	-0.3170180619	-2.094357491	13.25092125	1.0
[RightHandIndex3]
15	-28.83100128	0	0	-1.03293395	-1.965419769	33.59257126	1.0
16	-28.83100128	0	0	-0.4271481037	-0.7727316022	20.24788666	1.0
17	-28.83100128	0	0	-0.1085647047	0.5653740764	6.538043976	1.0
[RightHandIndex4]
15	-23.92700005	0	0	0	0	0	1.0
16	-23.92700005	0	0	0	0	0	1.0
17	-23.92700005	0	0	0	0	0	1.0
[RightHandThumb1]
15	-24.64799881	-15.72700024	26.82600021	16.8799057	5.664964676	-10.00402355	1.0
16	-24.64799881	-15.72700024	26.82600021	15.00740623	8.318077087	-9.706083298	1.0
17	-24.64799881	-15.72700024	26.82600021	12.94915104	11.13172436	-9.46625042	1.0
[RightHandThumb2]
15	-32.29800034	-18.64699936	18.64699936	-1.966972351	-28.80844498	3.707252741	1.0
16	-32.29800034	-18.64699936	18.64699936	-4.025774956	-22.79718971	4.722691536	1.0
17	-32.29800034	-18.64699936	18.64699936	-6.025175095	-16.32500648	5.519685268	1.0
[RightHandThumb3]
15	-26.52600098	-15.31399918	15.31399918	1.463073015	-6.878904819	1.209061146	1.0
16	-26.52600098	-15.31399918	15.31399918	0.877255559	-4.484993935	1.757346749	1.0
17	-26.52600098	-15.31399918	15.31399918	0.2764734924	-1.913821101	2.316263676	1.0
[RightHandThumb4]
15	-19.54599953	-11.28499985	11.28499985	0	0	0	1.0
16	-19.54599953	-11.28499985	11.28499985	0	0	0	1.0
17	-19.54599953	-11.28499985	11.28499985	0	0	0	1.0
[LeftUpLeg]
15	82.07800293	-67.51699829	-15.99599934	-67.76283264	-0.2837819159	-0.2057301104	1.0
16	82.07800293	-67.51699829	-15.99599934	-72.58089447	4.974096298	-3.91085124	1.0
17	82.07800293	-67.51699829	-15.99599934	-74.86786652	8.178752899	-3.161181927	1.0
[LeftLeg]
15	0	-443.7049866	2.845999956	85.74642181	-1.282872796	7.465190887	1.0
16	0	-443.7049866	2.845999956	100.7334595	-3.95772481	4.405562401	1.0
17	0	-443.7049866	2.845999956	113.2261429	-3.385757685	4.186491489	1.0
[LeftFoot]
15	0	-444.2789917	-29.8219986	-5.525071144	2.36456728	-3.111743927	1.0
16	0	-444.2789917	-29.8219986	5.232049465	2.069591284	-6.821552753	1.0
17	0	-444.2789917	-29.8219986	7.967655659	3.774548054	-10.84436035	1.0
[LeftToeBase]
15	0	-87.28699493	107.1060028	-14.59435558	1.113698545e-06	-3.033812618e-06	1.0
16	0	-87.28699493	107.1060028	-5.565570354	-6.718572877e-06	5.560186764e-06	1.0
17	0	-87.28699493	107.1060028	2.021273136	1.2290119e-06	8.846923265e-06	1.0
[RightUpLeg]
15	-82.07800293	-67.51699829	-15.99599934	-42.83530045	-0.490439266	0.9169045091	1.0
16	-82.07800293	-67.51699829	-15.99599934	-29.30546951	-4.474869251	1.12016952	1.0
17	-82.07800293	-67.51699829	-15.99599934	-19.74304199	-5.343599796	0.3104861081	1.0
[RightLeg]
15	0	-443.7049866	2.861999989	54.91739273	-4.179111004	-3.954956532	1.0
16	0	-443.7049866	2.861999989	36.5630188	-4.91723156	-1.931367874	1.0
17	0	-443.7049866	2.861999989	24.5333786	-6.487990379	-4.758566856	1.0
[RightFoot]
15	0	-444.2770081	-29.83799934	-9.085671425	-5.736074448	-0.7783507109	1.0
16	0	-444.2770081	-29.83799934	12.53327942	-2.860621214	3.224001408	1.0
17	0	-444.2770081	-29.83799934	17.20000267	-14.16128826	19.77981377	1.0
[RightToeBase]
15	0	-87.28699493	107.1060028	-18.01650047	-4.097852013e-07	1.186781375e-07	1.0
16	0	-87.28699493	107.1060028	-7.612297058	-0.2137692124	-2.106165409	1.0
17	0	-87.28699493	107.1060028	0.5349056721	6.377705631e-06	-4.140340934e-06	1.0
[EndOfFile]
